<svg width="14" height="14" viewBox="0 0 14 14" fill="none" xmlns="http://www.w3.org/2000/svg">
<path d="M10 1.75H1.5C0.947715 1.75 0.5 2.19772 0.5 2.75V8.75C0.5 9.30228 0.947715 9.75 1.5 9.75H10C10.5523 9.75 11 9.30228 11 8.75V2.75C11 2.19772 10.5523 1.75 10 1.75Z" stroke="black" stroke-linecap="round" stroke-linejoin="round"/>
<path d="M3.5 12.25H12.5C12.7652 12.25 13.0196 12.1446 13.2071 11.9571C13.3946 11.7696 13.5 11.5152 13.5 11.25V6.25" stroke="black" stroke-linecap="round" stroke-linejoin="round"/>
<path d="M2.5249 5.85669C2.38683 5.85669 2.2749 5.74476 2.2749 5.60669C2.2749 5.46862 2.38683 5.35669 2.5249 5.35669" stroke="black" stroke-linecap="round" stroke-linejoin="round"/>
<path d="M2.5249 5.85669C2.66297 5.85669 2.7749 5.74476 2.7749 5.60669C2.7749 5.46862 2.66297 5.35669 2.5249 5.35669" stroke="black" stroke-linecap="round" stroke-linejoin="round"/>
<path d="M8.9751 5.85669C8.83703 5.85669 8.7251 5.74476 8.7251 5.60669C8.7251 5.46862 8.83703 5.35669 8.9751 5.35669" stroke="black" stroke-linecap="round" stroke-linejoin="round"/>
<path d="M8.9751 5.85669C9.11317 5.85669 9.2251 5.74476 9.2251 5.60669C9.2251 5.46862 9.11317 5.35669 8.9751 5.35669" stroke="black" stroke-linecap="round" stroke-linejoin="round"/>
<path d="M5.75 7C6.44036 7 7 6.44036 7 5.75C7 5.05964 6.44036 4.5 5.75 4.5C5.05964 4.5 4.5 5.05964 4.5 5.75C4.5 6.44036 5.05964 7 5.75 7Z" stroke="black" stroke-linecap="round" stroke-linejoin="round"/>
</svg>
